<svg xmlns="http://www.w3.org/2000/svg" width="340.819" height="98.893" viewBox="0 0 340.819 98.893">
  <g id="logo-H" transform="translate(-462.198 -309.846)">
    <g id="Group_594" data-name="Group 594">
      <g id="Group_542" data-name="Group 542">
        <path id="Path_256" data-name="Path 256" d="M801.611,365.749a1,1,0,0,1-.741-.326,41.086,41.086,0,0,0-5.655-4.2,58.4,58.4,0,0,0-8.7-4.428l-.764-.31a1,1,0,1,1,.742-1.857l.761.308a59.449,59.449,0,0,1,9.02,4.588A43.1,43.1,0,0,1,802.278,364a1,1,0,0,1-.667,1.75Z" fill="#c48e61"/>
      </g>
      <g id="Group_543" data-name="Group 543">
        <path id="Path_257" data-name="Path 257" d="M794.215,386.211a.986.986,0,0,1-.5-.135,61.8,61.8,0,0,0-8.793-4.159,1,1,0,0,1,.717-1.868,64.024,64.024,0,0,1,9.078,4.3,1,1,0,0,1-.5,1.866Z" fill="#c48e61"/>
      </g>
      <g id="Group_544" data-name="Group 544">
        <path id="Path_258" data-name="Path 258" d="M717.413,395.413a1,1,0,0,1-.379-1.926,81.544,81.544,0,0,1,13.945-4.223c.013,0,2.145-.422,4.342-.792a1,1,0,1,1,.332,1.973c-2.17.364-4.274.779-4.274.779a79.374,79.374,0,0,0-13.587,4.115A1.014,1.014,0,0,1,717.413,395.413Z" fill="#c48e61"/>
      </g>
      <g id="Group_545" data-name="Group 545">
        <path id="Path_259" data-name="Path 259" d="M800.573,371.32a.99.99,0,0,1-.636-.23c-.7-.581-1.441-1.152-2.2-1.7h0s-.719-.477-1.643-1.072a1,1,0,0,1,1.084-1.682c.956.618,1.7,1.109,1.7,1.109.827.594,1.6,1.194,2.339,1.8a1,1,0,0,1-.639,1.771Z" fill="#c48e61"/>
      </g>
      <g id="Group_546" data-name="Group 546">
        <path id="Path_260" data-name="Path 260" d="M793.271,366.393a.993.993,0,0,1-.484-.125,62.2,62.2,0,0,0-6.156-2.962,1,1,0,0,1,.769-1.845,63.8,63.8,0,0,1,6.356,3.057,1,1,0,0,1-.485,1.875Z" fill="#c48e61"/>
      </g>
      <g id="Group_547" data-name="Group 547">
        <path id="Path_261" data-name="Path 261" d="M703.49,371.3a1,1,0,0,1-.638-1.771,45.731,45.731,0,0,1,4.943-3.565,1,1,0,0,1,1.059,1.7,43.655,43.655,0,0,0-4.727,3.409A1,1,0,0,1,703.49,371.3Z" fill="#c48e61"/>
      </g>
      <g id="Group_548" data-name="Group 548">
        <path id="Path_262" data-name="Path 262" d="M711.616,365.94a1,1,0,0,1-.465-1.886,75.036,75.036,0,0,1,7.3-3.34,1,1,0,1,1,.731,1.861,72.751,72.751,0,0,0-7.1,3.251A.99.99,0,0,1,711.616,365.94Z" fill="#c48e61"/>
      </g>
      <g id="Group_549" data-name="Group 549">
        <path id="Path_263" data-name="Path 263" d="M723.2,335.872a1.5,1.5,0,0,1-.451-2.931q.852-.269,1.723-.522l2.911-.791c2.517-.638,5.107-1.176,7.723-1.607,1.568-.258,3.184-.483,4.8-.671a1.5,1.5,0,0,1,.346,2.981c-1.57.181-3.139.4-4.661.651-2.531.416-5.037.937-7.447,1.547l-2.86.777c-.532.156-1.087.324-1.634.5A1.5,1.5,0,0,1,723.2,335.872Z" fill="#005f54"/>
      </g>
      <g id="Group_550" data-name="Group 550">
        <path id="Path_264" data-name="Path 264" d="M714.331,345.744a1.5,1.5,0,0,1-.639-2.858c1.622-.761,3.344-1.485,5.117-2.15l.1-.035.154-.057a95.969,95.969,0,0,1,32.982-5.535q.838,0,1.672.012c1.886.03,3.764.107,5.584.229a1.5,1.5,0,0,1-.2,2.994c-1.77-.12-3.6-.2-5.428-.223q-.809-.012-1.627-.012a92.97,92.97,0,0,0-31.95,5.352l-.145.053c-1.782.668-3.428,1.361-4.978,2.087A1.492,1.492,0,0,1,714.331,345.744Z" fill="#005f54"/>
      </g>
      <g id="Group_551" data-name="Group 551">
        <path id="Path_265" data-name="Path 265" d="M780.594,380.862a1.537,1.537,0,0,1-.446-.067,95.984,95.984,0,0,0-28.107-4.049c-3.4,0-6.812.165-10.135.491q-1.034.1-2.058.223c-1.939.232-3.871.521-5.743.86a1.5,1.5,0,0,1-.535-2.951c1.931-.35,3.924-.649,5.923-.888q1.055-.124,2.119-.23c3.421-.335,6.929-.505,10.429-.505a99.039,99.039,0,0,1,29,4.183,1.5,1.5,0,0,1-.445,2.933Z" fill="#005f54"/>
      </g>
      <g id="Group_552" data-name="Group 552">
        <path id="Path_266" data-name="Path 266" d="M774.72,385.7a1.515,1.515,0,0,1-.333-.037c-2.52-.574-5.589-1.115-5.619-1.119a101.3,101.3,0,0,0-16.727-1.365c-2.058,0-4.131.061-6.161.179-.414.025-.827.051-1.24.081-2.377.168-4.759.421-7.08.753a1.5,1.5,0,1,1-.424-2.971c2.391-.341,4.844-.6,7.29-.774q.633-.045,1.276-.083c2.091-.123,4.223-.185,6.339-.185a104.361,104.361,0,0,1,17.234,1.408c.14.024,3.183.561,5.776,1.15a1.5,1.5,0,0,1-.331,2.963Z" fill="#005f54"/>
      </g>
      <g id="Group_553" data-name="Group 553">
        <path id="Path_267" data-name="Path 267" d="M769.781,391.141a1.552,1.552,0,0,1-.262-.022c-1.389-.245-2.8-.461-4.209-.644a104.445,104.445,0,0,0-15.35-.827c-2.941.058-5.9.24-8.776.544a1.5,1.5,0,1,1-.315-2.984c2.967-.312,6.005-.5,9.032-.56a107.331,107.331,0,0,1,15.795.853c1.449.187,2.91.411,4.344.663a1.5,1.5,0,0,1-.259,2.977Z" fill="#005f54"/>
      </g>
      <g id="Group_554" data-name="Group 554">
        <path id="Path_268" data-name="Path 268" d="M720.426,356.133a1.5,1.5,0,0,1-.534-2.9l.333-.127c1.944-.684,3.94-1.3,5.97-1.845h.007c.069-.017.137-.036.2-.054h0a100,100,0,0,1,25.63-3.212,101.464,101.464,0,0,1,23.2,2.6c2.121.5,4.211,1.074,6.214,1.707a1.5,1.5,0,1,1-.906,2.86c-1.93-.611-3.947-1.165-5.995-1.647a98.479,98.479,0,0,0-22.512-2.524,96.952,96.952,0,0,0-24.864,3.113h0l-.193.051c-1.96.525-3.886,1.12-5.727,1.767l-.3.113A1.5,1.5,0,0,1,720.426,356.133Z" fill="#005f54"/>
      </g>
      <g id="Group_555" data-name="Group 555">
        <path id="Path_269" data-name="Path 269" d="M791.04,372.132a1.5,1.5,0,0,1-.668-.158c-10.5-5.23-24.108-8.111-38.331-8.111a100.989,100.989,0,0,0-17.579,1.512l-.224.04c-1.393.251-2.788.535-4.134.842q-1.379.316-2.718.667a1.5,1.5,0,0,1-.764-2.9q1.386-.366,2.812-.69c1.393-.32,2.835-.613,4.283-.873l.132-.024a104.168,104.168,0,0,1,18.192-1.574c14.678,0,28.766,2.992,39.669,8.426a1.5,1.5,0,0,1-.67,2.843Z" fill="#005f54"/>
      </g>
      <g id="Group_556" data-name="Group 556">
        <path id="Path_270" data-name="Path 270" d="M787.7,377.125A1.492,1.492,0,0,1,787.1,377c-10.134-4.378-22.338-6.693-35.294-6.693a103.029,103.029,0,0,0-13.22.842,1.451,1.451,0,0,1-.289.069q-1.782.243-3.519.542c-1.366.238-2.751.511-4.118.813a1.5,1.5,0,1,1-.646-2.93c1.41-.311,2.84-.594,4.252-.838.994-.173,2.032-.336,3.092-.485a1.461,1.461,0,0,1,.3-.074,105.764,105.764,0,0,1,14.143-.939c13.361,0,25.977,2.4,36.484,6.939a1.5,1.5,0,0,1-.6,2.877Z" fill="#005f54"/>
      </g>
      <g id="Group_557" data-name="Group 557">
        <path id="Path_271" data-name="Path 271" d="M717.224,350.912a1.5,1.5,0,0,1-.526-2.9l4.452-1.665c.505-.169.963-.32,1.424-.465.5-.159,1-.312,1.5-.463a99.849,99.849,0,0,1,27.963-3.868,106.663,106.663,0,0,1,12.566.737c1.677.2,3.338.441,4.938.715a1.5,1.5,0,1,1-.506,2.957c-1.551-.266-3.161-.5-4.788-.694a103.839,103.839,0,0,0-12.21-.715,96.809,96.809,0,0,0-27.107,3.744c-.486.144-.972.294-1.453.446q-.669.213-1.33.435l-4.4,1.646A1.491,1.491,0,0,1,717.224,350.912Z" fill="#005f54"/>
      </g>
      <g id="Group_558" data-name="Group 558">
        <path id="Path_272" data-name="Path 272" d="M782.412,362.151a1.5,1.5,0,0,1-.481-.079,94.348,94.348,0,0,0-29.913-4.654,95.973,95.973,0,0,0-27.794,3.968,1.5,1.5,0,1,1-.881-2.867,98.99,98.99,0,0,1,28.675-4.1,97.4,97.4,0,0,1,30.876,4.812,1.5,1.5,0,0,1-.482,2.921Z" fill="#005f54"/>
      </g>
      <g id="Group_559" data-name="Group 559">
        <path id="Path_273" data-name="Path 273" d="M759.994,312.139c-.024,0-.049,0-.073,0l-.841-.058a1,1,0,0,1-.933-1.064,1.015,1.015,0,0,1,1.064-.932l.854.06a1,1,0,0,1-.071,2Z" fill="#adadad"/>
      </g>
      <g id="Group_560" data-name="Group 560">
        <path id="Path_274" data-name="Path 274" d="M743.362,312.2a1,1,0,0,1-.081-2,108.219,108.219,0,0,1,15.929-.119,1,1,0,0,1,.934,1.062,1.014,1.014,0,0,1-1.063.934,105.618,105.618,0,0,0-15.636.117C743.417,312.2,743.39,312.2,743.362,312.2Z" fill="#adadad"/>
      </g>
      <g id="Group_561" data-name="Group 561">
        <path id="Path_275" data-name="Path 275" d="M769.455,319.737a.95.95,0,0,1-.175-.016c-1.317-.231-2.52-.411-3.574-.534a100.121,100.121,0,0,0-15.368-.873c-.495.011-.988.021-1.48.024h0a1,1,0,0,1-.006-2c.481,0,.965-.013,1.448-.024a103.2,103.2,0,0,1,15.659.889c1.075.125,2.317.31,3.674.55a1,1,0,0,1-.173,1.984Z" fill="#adadad"/>
      </g>
      <g id="Group_562" data-name="Group 562">
        <path id="Path_276" data-name="Path 276" d="M784.871,323.873a.992.992,0,0,1-.352-.065,80.134,80.134,0,0,0-10.508-3.131l-.544-.123a1,1,0,1,1,.428-1.953l.567.127a82.357,82.357,0,0,1,10.762,3.209,1,1,0,0,1-.353,1.936Z" fill="#adadad"/>
      </g>
      <g id="Group_563" data-name="Group 563">
        <path id="Path_277" data-name="Path 277" d="M723.6,322.374a1,1,0,0,1-.3-1.955,92.289,92.289,0,0,1,16.829-3.462c.048-.008,1.915-.275,4.542-.457a1.016,1.016,0,0,1,1.067.928,1,1,0,0,1-.928,1.068c-2.548.176-4.408.441-4.426.444a90.419,90.419,0,0,0-16.492,3.389A1.023,1.023,0,0,1,723.6,322.374Z" fill="#adadad"/>
      </g>
      <g id="Group_564" data-name="Group 564">
        <path id="Path_278" data-name="Path 278" d="M786.533,330.959a1,1,0,0,1-.376-.074,83.986,83.986,0,0,0-20.316-5.243c-.007,0-2.1-.252-4.725-.478a1,1,0,0,1-.91-1.082.985.985,0,0,1,1.082-.91c2.666.229,4.785.484,4.807.486a85.986,85.986,0,0,1,20.814,5.374,1,1,0,0,1-.376,1.927Z" fill="#adadad"/>
      </g>
      <g id="Group_565" data-name="Group 565">
        <path id="Path_279" data-name="Path 279" d="M738.109,325.65a1,1,0,0,1-.132-1.991,107.034,107.034,0,0,1,17.111-.89,1,1,0,1,1-.057,2,104.164,104.164,0,0,0-16.787.872A1.03,1.03,0,0,1,738.109,325.65Z" fill="#adadad"/>
      </g>
      <g id="Group_566" data-name="Group 566">
        <path id="Path_280" data-name="Path 280" d="M713.04,332.989a1,1,0,0,1-.446-1.9,77,77,0,0,1,18.192-6.186s1.933-.421,2.765-.572a1,1,0,1,1,.359,1.966c-.812.149-2.7.56-2.7.561a74.928,74.928,0,0,0-17.724,6.022A.981.981,0,0,1,713.04,332.989Z" fill="#adadad"/>
      </g>
      <g id="Group_567" data-name="Group 567">
        <path id="Path_281" data-name="Path 281" d="M797.271,343.054a.988.988,0,0,1-.561-.173,61.114,61.114,0,0,0-15.72-7.427,78.791,78.791,0,0,0-10.669-2.687,1,1,0,0,1,.348-1.969,80.7,80.7,0,0,1,10.941,2.754,63.122,63.122,0,0,1,16.225,7.676,1,1,0,0,1-.564,1.826Z" fill="#adadad"/>
      </g>
      <g id="Group_568" data-name="Group 568">
        <path id="Path_282" data-name="Path 282" d="M764.369,331.883a.963.963,0,0,1-.119-.006,103.459,103.459,0,0,0-11.454-.711c-.018,0-2.539,0-5.143.107l-2.678.134a1,1,0,0,1-.1-2l2.688-.134c2.655-.1,5.213-.109,5.239-.109a106.02,106.02,0,0,1,11.684.724,1,1,0,0,1-.117,1.993Z" fill="#adadad"/>
      </g>
      <g id="Group_569" data-name="Group 569">
        <path id="Path_283" data-name="Path 283" d="M705.379,344.07a1,1,0,0,1-.6-1.8A57.515,57.515,0,0,1,718.1,335.1a1,1,0,0,1,.726,1.863,55.563,55.563,0,0,0-12.857,6.909A.993.993,0,0,1,705.379,344.07Z" fill="#adadad"/>
      </g>
      <g id="Group_570" data-name="Group 570">
        <path id="Path_284" data-name="Path 284" d="M801.593,352.852a1,1,0,0,1-.667-.255c-4.64-4.151-11.093-7.707-18.663-10.282a1,1,0,1,1,.644-1.892c7.822,2.66,14.515,6.354,19.353,10.684a1,1,0,0,1-.667,1.745Z" fill="#adadad"/>
      </g>
      <g id="Group_571" data-name="Group 571">
        <path id="Path_285" data-name="Path 285" d="M775.463,340.307a1.007,1.007,0,0,1-.236-.028,92.926,92.926,0,0,0-9.433-1.763q-.96-.129-1.935-.241a1,1,0,1,1,.229-1.986c.661.075,1.32.157,1.973.245a94.611,94.611,0,0,1,9.636,1.8,1,1,0,0,1-.234,1.971Z" fill="#adadad"/>
      </g>
      <g id="Group_572" data-name="Group 572">
        <path id="Path_286" data-name="Path 286" d="M802.017,359.675a.993.993,0,0,1-.679-.265,41.327,41.327,0,0,0-5.9-4.493,1,1,0,0,1,1.072-1.69,43.361,43.361,0,0,1,6.186,4.714,1,1,0,0,1-.678,1.734Z" fill="#adadad"/>
      </g>
      <g id="Group_573" data-name="Group 573">
        <path id="Path_287" data-name="Path 287" d="M793.36,353.524a.985.985,0,0,1-.484-.126q-1.09-.6-2.24-1.176a88.025,88.025,0,0,0-8.227-3.416,82.114,82.114,0,0,0-8.274-2.345,1,1,0,0,1,.445-1.95,84.177,84.177,0,0,1,8.485,2.406,87.993,87.993,0,0,1,8.459,3.514q1.191.591,2.323,1.219a1,1,0,0,1-.487,1.874Z" fill="#adadad"/>
      </g>
      <g id="Group_574" data-name="Group 574">
        <path id="Path_288" data-name="Path 288" d="M702.065,359.674a1,1,0,0,1-.677-1.735,42.257,42.257,0,0,1,4.972-3.911,1,1,0,1,1,1.121,1.656,40.279,40.279,0,0,0-4.738,3.726A.992.992,0,0,1,702.065,359.674Z" fill="#adadad"/>
      </g>
      <g id="Group_575" data-name="Group 575">
        <path id="Path_289" data-name="Path 289" d="M799.005,376.5a1,1,0,0,1-.6-.2c-.925-.7-1.913-1.379-2.934-2.029l-.85-.544a1,1,0,1,1,1.08-1.683l.846.542c1.062.675,2.094,1.388,3.061,2.117a1,1,0,0,1-.6,1.8Z" fill="#adadad"/>
      </g>
      <g id="Group_576" data-name="Group 576">
        <path id="Path_290" data-name="Path 290" d="M705.077,376.5a1,1,0,0,1-.6-1.8,58.716,58.716,0,0,1,15.614-8.139s.537-.19,1.581-.533a1,1,0,1,1,.623,1.9c-1.008.331-1.526.515-1.533.517a56.792,56.792,0,0,0-15.082,7.852A1,1,0,0,1,705.077,376.5Z" fill="#adadad"/>
      </g>
      <g id="Group_577" data-name="Group 577">
        <path id="Path_291" data-name="Path 291" d="M796.9,381.44a1,1,0,0,1-.553-.168,52.24,52.24,0,0,0-5.008-2.934,1,1,0,1,1,.916-1.778,53.934,53.934,0,0,1,5.2,3.048,1,1,0,0,1-.556,1.832Z" fill="#adadad"/>
      </g>
      <g id="Group_578" data-name="Group 578">
        <path id="Path_292" data-name="Path 292" d="M715.125,377.037a1,1,0,0,1-.409-1.913c1.524-.682,3.617-1.47,3.706-1.5,2.044-.786,4.2-1.508,6.405-2.142a1,1,0,0,1,.553,1.922c-2.149.618-4.25,1.321-6.248,2.089-.028.011-2.131.8-3.6,1.46A1.018,1.018,0,0,1,715.125,377.037Z" fill="#adadad"/>
      </g>
      <g id="Group_579" data-name="Group 579">
        <path id="Path_293" data-name="Path 293" d="M707.193,381.43a1,1,0,0,1-.479-1.882c1.015-.671,2.076-1.321,3.154-1.929a1,1,0,0,1,.983,1.742c-1.063.6-2.107,1.239-3.1,1.9A1,1,0,0,1,707.193,381.43Z" fill="#adadad"/>
      </g>
      <g id="Group_580" data-name="Group 580">
        <path id="Path_294" data-name="Path 294" d="M709.877,386.2a1,1,0,0,1-.5-1.866,69.132,69.132,0,0,1,15.384-6.4c.03-.008,2.246-.573,3.59-.9a1,1,0,1,1,.472,1.943c-1.336.324-3.538.886-3.538.886a67.043,67.043,0,0,0-14.908,6.2A.992.992,0,0,1,709.877,386.2Z" fill="#adadad"/>
      </g>
      <g id="Group_581" data-name="Group 581">
        <path id="Path_295" data-name="Path 295" d="M713.227,390.849a1,1,0,0,1-.444-1.9c1.243-.614,2.54-1.2,3.857-1.75.015-.006,3.354-1.328,4.824-1.892a1,1,0,0,1,.717,1.867c-1.464.562-4.788,1.878-4.789,1.878-1.261.525-2.519,1.1-3.724,1.69A1,1,0,0,1,713.227,390.849Z" fill="#adadad"/>
      </g>
      <g id="Group_582" data-name="Group 582">
        <path id="Path_296" data-name="Path 296" d="M786.669,395.413a1.009,1.009,0,0,1-.378-.074c-1.19-.487-2.429-.953-3.679-1.385-.019-.007-4.323-1.377-5.827-1.764l-1.8-.459a1,1,0,0,1,.492-1.939l1.806.462c1.555.4,5.777,1.745,5.956,1.8,1.308.453,2.58.932,3.8,1.432a1,1,0,0,1-.378,1.926Z" fill="#adadad"/>
      </g>
      <g id="Group_583" data-name="Group 583">
        <path id="Path_297" data-name="Path 297" d="M781.3,399.9a1.023,1.023,0,0,1-.306-.048,85.8,85.8,0,0,0-10.564-2.641,1,1,0,1,1,.365-1.967,87.955,87.955,0,0,1,10.811,2.7,1,1,0,0,1-.306,1.952Z" fill="#adadad"/>
      </g>
      <g id="Group_584" data-name="Group 584">
        <path id="Path_298" data-name="Path 298" d="M763.465,396.18a1.029,1.029,0,0,1-.11-.006,105.93,105.93,0,0,0-16.442-.486l-2.136.152a1,1,0,0,1-.142-1.995l2.158-.153a107.28,107.28,0,0,1,16.779.494,1,1,0,0,1-.107,1.994Z" fill="#adadad"/>
      </g>
      <g id="Group_585" data-name="Group 585">
        <path id="Path_299" data-name="Path 299" d="M722.795,399.9a1,1,0,0,1-.306-1.952,90.4,90.4,0,0,1,15.094-3.4,1,1,0,1,1,.275,1.981,88.475,88.475,0,0,0-14.757,3.321A1.023,1.023,0,0,1,722.795,399.9Z" fill="#adadad"/>
      </g>
      <g id="Group_586" data-name="Group 586">
        <path id="Path_300" data-name="Path 300" d="M773.882,404.343a.967.967,0,0,1-.219-.024,98.8,98.8,0,0,0-19.987-2.3,1,1,0,0,1,.015-2h.016a100.772,100.772,0,0,1,20.392,2.346,1,1,0,0,1-.217,1.975Z" fill="#adadad"/>
      </g>
      <g id="Group_587" data-name="Group 587">
        <path id="Path_301" data-name="Path 301" d="M730.21,404.343a1,1,0,0,1-.164-1.988,98.945,98.945,0,0,1,15.326-2.139,1,1,0,1,1,.123,2,96.953,96.953,0,0,0-15.067,2.106A.945.945,0,0,1,730.21,404.343Z" fill="#adadad"/>
      </g>
      <g id="Group_588" data-name="Group 588">
        <path id="Path_302" data-name="Path 302" d="M744.146,408.738a1,1,0,0,1-.073-2,108.413,108.413,0,0,1,15.937,0,1,1,0,0,1,.924,1.07.988.988,0,0,1-1.071.924,106.63,106.63,0,0,0-15.643,0Z" fill="#adadad"/>
      </g>
      <g id="Group_589" data-name="Group 589">
        <path id="Path_303" data-name="Path 303" d="M702.47,365.75a1,1,0,0,1-1-1v-.009A1,1,0,0,1,701.8,364a48.674,48.674,0,0,1,11-7.25,21.362,21.362,0,0,1,2.352-1.128,1,1,0,1,1,.793,1.836,19.371,19.371,0,0,0-2.126,1.012c-.029.018-.065.039-.095.054a46.846,46.846,0,0,0-10.551,6.929A1,1,0,0,1,702.47,365.75Z" fill="#adadad"/>
      </g>
      <g id="Group_590" data-name="Group 590">
        <path id="Path_304" data-name="Path 304" d="M702.489,352.852a1,1,0,0,1-.667-1.745,42.391,42.391,0,0,1,7.311-5.249,1,1,0,0,1,1,1.731,40.392,40.392,0,0,0-6.979,5.008A1,1,0,0,1,702.489,352.852Z" fill="#adadad"/>
      </g>
      <g id="Group_591" data-name="Group 591">
        <path id="Path_305" data-name="Path 305" d="M725.819,386.107a1,1,0,0,1-.266-1.964c1.659-.461,3.918-1,6.2-1.471a1,1,0,1,1,.406,1.959c-2.239.464-4.451.99-6.07,1.44A1.037,1.037,0,0,1,725.819,386.107Z" fill="#adadad"/>
      </g>
      <g id="Group_592" data-name="Group 592">
        <path id="Path_306" data-name="Path 306" d="M790.866,390.859a.993.993,0,0,1-.441-.1,71.125,71.125,0,0,0-10.6-4.109,1,1,0,0,1,.59-1.912,73.139,73.139,0,0,1,10.9,4.228,1,1,0,0,1-.444,1.9Z" fill="#adadad"/>
      </g>
      <g id="Group_593" data-name="Group 593">
        <path id="Path_307" data-name="Path 307" d="M709.683,354.1a1,1,0,0,1-.507-1.863c1.2-.7,1.828-1.042,2.942-1.592a1,1,0,0,1,.885,1.793c-1.064.526-1.669.853-2.816,1.526A1,1,0,0,1,709.683,354.1Z" fill="#adadad"/>
      </g>
    </g>
    <g id="Group_663" data-name="Group 663">
      <g id="Group_595" data-name="Group 595">
        <path id="Path_308" data-name="Path 308" d="M488.381,357.013l.062-.149a6.473,6.473,0,0,0,.31-.931c.074-.3.141-.624.2-.982s.1-.727.136-1.12c.034-.439.048-.828.048-1.186a4.42,4.42,0,0,0-.412-1.97,3.757,3.757,0,0,0-1.219-1.4,4.651,4.651,0,0,0-1.347-.67,6.81,6.81,0,0,0-2.634-.192,5.644,5.644,0,0,0-.891.169,6.223,6.223,0,0,0-.818.28c-.247.1-.562.257-.975.48l-.2.113.668,1.471.242-.16a5.19,5.19,0,0,1,1.428-.683,4.665,4.665,0,0,1,2.587-.019,3.349,3.349,0,0,1,.91.416,2.2,2.2,0,0,1,.746.881,2.671,2.671,0,0,1,.2,1.06,16.441,16.441,0,0,1-.1,2.04,6.949,6.949,0,0,1-.189,1.016h-10.2l-.005-7.117h-1.7l.005,7.117H470.42l-.005-7.854h-1.694v.737h-.552a8.517,8.517,0,0,0-2.426.319,6.063,6.063,0,0,0-1.884.9,4.053,4.053,0,0,0-1.234,1.38,3.606,3.606,0,0,0-.427,1.732,3.694,3.694,0,0,0,.519,1.982,4.111,4.111,0,0,0,1.36,1.35,5.876,5.876,0,0,0,1.908.76,9.92,9.92,0,0,0,2.189.233h20.207ZM467.7,349.895h1.027v5.583H467.7a5.444,5.444,0,0,1-1.524-.2,3.975,3.975,0,0,1-1.217-.561,2.5,2.5,0,0,1-.778-.862,2.314,2.314,0,0,1-.286-1.164,2.125,2.125,0,0,1,.3-1.113,2.817,2.817,0,0,1,.838-.876,4.66,4.66,0,0,1,1.234-.586,4.851,4.851,0,0,1,1.428-.218" fill="#074045"/>
      </g>
      <g id="Group_596" data-name="Group 596">
        <path id="Path_309" data-name="Path 309" d="M491.664,348.361l.005,8.938a4.974,4.974,0,0,1-.039.581,1.215,1.215,0,0,1-.127.465.666.666,0,0,1-.252.276.9.9,0,0,1-.487.1,2.3,2.3,0,0,1-.684-.159l-.213-.078-.644,1.42.248.091a3.579,3.579,0,0,0,1.224.262,3.186,3.186,0,0,0,1.327-.238,1.981,1.981,0,0,0,.847-.686,2.575,2.575,0,0,0,.4-.97,5.429,5.429,0,0,0,.1-1.065l-.005-8.938Z" fill="#074045"/>
      </g>
      <g id="Group_597" data-name="Group 597">
        <path id="Path_310" data-name="Path 310" d="M513.4,345.77h1.675v-1.536H511.7l.005,11.244H508.2c.053-.265.108-.6.165-1.011a12.919,12.919,0,0,0,.121-1.821,4.41,4.41,0,0,0-.416-1.971,3.7,3.7,0,0,0-1.216-1.4,4.6,4.6,0,0,0-1.347-.669,5.2,5.2,0,0,0-1.6-.246,9.975,9.975,0,0,0-1.037.054,5.654,5.654,0,0,0-.885.168,6.33,6.33,0,0,0-.823.281,10.827,10.827,0,0,0-.975.48l-.208.112.683,1.471.238-.16a5.007,5.007,0,0,1,1.423-.682,4.661,4.661,0,0,1,2.585-.02,3.335,3.335,0,0,1,.912.416,2.246,2.246,0,0,1,.749.881,2.744,2.744,0,0,1,.2,1.061,16.416,16.416,0,0,1-.1,2.039,7.925,7.925,0,0,1-.19,1.016h-9.225l0-11.244h-1.7l.005,12.78H513.4Z" fill="#074045"/>
      </g>
      <g id="Group_598" data-name="Group 598">
        <rect id="Rectangle_145" data-name="Rectangle 145" width="1.7" height="12.779" transform="translate(516.419 344.234)" fill="#074045"/>
      </g>
      <g id="Group_599" data-name="Group 599">
        <path id="Path_311" data-name="Path 311" d="M531.326,347.624h-1.7v.737h-.548a8.438,8.438,0,0,0-2.419.319,5.92,5.92,0,0,0-1.889.9,4.059,4.059,0,0,0-1.236,1.38,3.6,3.6,0,0,0-.424,1.732,3.676,3.676,0,0,0,.518,1.982,4.1,4.1,0,0,0,1.36,1.35,5.871,5.871,0,0,0,1.907.76,9.917,9.917,0,0,0,2.188.233h2.248Zm-2.716,2.271h1.021v5.583H528.61a5.458,5.458,0,0,1-1.526-.2,3.952,3.952,0,0,1-1.215-.561,2.533,2.533,0,0,1-.78-.862,2.338,2.338,0,0,1-.28-1.164,2.108,2.108,0,0,1,.3-1.113,2.79,2.79,0,0,1,.833-.876,4.688,4.688,0,0,1,1.236-.586,4.836,4.836,0,0,1,1.428-.218" fill="#074045"/>
      </g>
      <g id="Group_600" data-name="Group 600">
        <path id="Path_312" data-name="Path 312" d="M536.033,358.364a5.434,5.434,0,0,0,.1-1.065l-.005-8.938H534.43l.005,8.938a4.958,4.958,0,0,1-.039.58,1.215,1.215,0,0,1-.127.465.668.668,0,0,1-.252.277.907.907,0,0,1-.487.1,2.3,2.3,0,0,1-.684-.159l-.213-.079-.643,1.421.247.091a3.579,3.579,0,0,0,1.224.262,3.2,3.2,0,0,0,1.327-.238,1.983,1.983,0,0,0,.847-.687,2.533,2.533,0,0,0,.4-.969" fill="#074045"/>
      </g>
      <g id="Group_601" data-name="Group 601">
        <path id="Path_313" data-name="Path 313" d="M567.71,355.478H563.7l-.005-11.244H562l.005,11.244h-4.649l0-7.117h-1.7l.005,7.117h-4.7c.055-.265.107-.6.165-1.011a12.915,12.915,0,0,0,.121-1.821,4.41,4.41,0,0,0-.416-1.971,3.707,3.707,0,0,0-1.216-1.4,4.625,4.625,0,0,0-1.345-.669,5.227,5.227,0,0,0-1.6-.246,9.974,9.974,0,0,0-1.037.054,5.711,5.711,0,0,0-.886.168,6.379,6.379,0,0,0-.823.281c-.247.1-.561.257-.974.48l-.208.112.683,1.471.237-.16a5.049,5.049,0,0,1,1.424-.682,4.662,4.662,0,0,1,2.585-.02,3.314,3.314,0,0,1,.911.416,2.241,2.241,0,0,1,.75.881,2.763,2.763,0,0,1,.2,1.061,16.416,16.416,0,0,1-.1,2.039,7.936,7.936,0,0,1-.19,1.016h-9.224l-.005-11.244h-1.7l.005,12.78h31.078L569.4,345.77h1.675v-1.536h-3.371Z" fill="#074045"/>
      </g>
      <g id="Group_602" data-name="Group 602">
        <path id="Path_314" data-name="Path 314" d="M594.24,350.37a5.391,5.391,0,0,0-1.685-.969,6.172,6.172,0,0,0-2.111-.348,5.59,5.59,0,0,0-2.033.358,5.15,5.15,0,0,0-1.632.993,4.818,4.818,0,0,0-1.085,1.471,4.046,4.046,0,0,0-.406,1.8,4.125,4.125,0,0,0,.353,1.806H583.1l-.005-7.854h-1.7v.737h-.548a8.438,8.438,0,0,0-2.419.319,5.919,5.919,0,0,0-1.889.9,4.059,4.059,0,0,0-1.236,1.38,3.6,3.6,0,0,0-.425,1.732,3.676,3.676,0,0,0,.519,1.982,4.115,4.115,0,0,0,1.358,1.35,5.9,5.9,0,0,0,1.909.76,9.917,9.917,0,0,0,2.188.233h6.005a5.116,5.116,0,0,0,1.506.881,5.773,5.773,0,0,0,2.081.369,6.105,6.105,0,0,0,2.083-.34,5.235,5.235,0,0,0,1.681-.953,4.68,4.68,0,0,0,1.137-1.448,4.118,4.118,0,0,0,.417-1.85,4.23,4.23,0,0,0-.407-1.84,4.667,4.667,0,0,0-1.119-1.462m-1.181,1.1a2.832,2.832,0,0,1,.741.968,2.893,2.893,0,0,1,.267,1.235,2.71,2.71,0,0,1-.271,1.22,2.962,2.962,0,0,1-.742.96,3.463,3.463,0,0,1-1.142.638,4.415,4.415,0,0,1-1.464.238,3.729,3.729,0,0,1-1.389-.252,3.572,3.572,0,0,1-1.1-.663,2.933,2.933,0,0,1-.716-.974,2.789,2.789,0,0,1-.261-1.167,2.83,2.83,0,0,1,.256-1.176,3.1,3.1,0,0,1,.721-.993,3.447,3.447,0,0,1,1.085-.668,3.847,3.847,0,0,1,1.4-.247,4.485,4.485,0,0,1,1.464.231,3.622,3.622,0,0,1,1.147.65m-12.676-1.574H581.4v5.583h-1.021a5.458,5.458,0,0,1-1.526-.2,3.952,3.952,0,0,1-1.215-.561,2.523,2.523,0,0,1-.78-.862,2.337,2.337,0,0,1-.28-1.164,2.108,2.108,0,0,1,.3-1.113,2.789,2.789,0,0,1,.833-.876,4.7,4.7,0,0,1,1.234-.586,4.859,4.859,0,0,1,1.43-.218" fill="#074045"/>
      </g>
      <g id="Group_603" data-name="Group 603">
        <path id="Path_315" data-name="Path 315" d="M614.732,344.233l.008,11.241h-4.97l2.4-5.054a1.035,1.035,0,0,0-.162-.115,9.514,9.514,0,0,0-2.589-1.434,7.709,7.709,0,0,0-5.277-.007.36.36,0,0,0-.085.03,8.48,8.48,0,0,0-2.612,1.488l-.016.023a.068.068,0,0,0-.03.015l2.3,5.054h-4.568V344.233h-1.7l.008,12.782h18.991V345.767h1.68v-1.534Zm-9.114,11.241-2.142-4.553a5.9,5.9,0,0,1,1.464-.709V350.2a5.275,5.275,0,0,1,2.8-.216,7.594,7.594,0,0,1,.994.285,9.169,9.169,0,0,1,.917.394c.184.092.339.184.454.254l-2.165,4.553Z" fill="#074045"/>
      </g>
      <g id="Group_604" data-name="Group 604">
        <rect id="Rectangle_146" data-name="Rectangle 146" width="1.696" height="12.779" transform="translate(619.461 344.234)" fill="#074045"/>
      </g>
      <g id="Group_605" data-name="Group 605">
        <path id="Path_316" data-name="Path 316" d="M640.484,345.866h-2.508v-.149c0-.218.058-.3.1-.339.029-.024.156-.107.562-.107h1.3v-1.534h-1.419a2.269,2.269,0,0,0-1.689.586h-.005a2.219,2.219,0,0,0-.567,1.612V347.4h4.222Z" fill="#074045"/>
      </g>
      <g id="Group_606" data-name="Group 606">
        <path id="Path_317" data-name="Path 317" d="M665.988,345.765h1.681v-1.536h-3.38l.005,11.244h-3.478c.034-.2.079-.44.123-.735a9.354,9.354,0,0,0,.091-1.351,8.659,8.659,0,0,0-.209-1.9,5.942,5.942,0,0,0-.725-1.8,4.835,4.835,0,0,0-.906-1.09,6.179,6.179,0,0,0-1.278-.881,7.714,7.714,0,0,0-1.593-.614,7.475,7.475,0,0,0-1.865-.224,9.892,9.892,0,0,0-2.416.276A15.358,15.358,0,0,0,649.7,348l-.242.112.746,1.394.207-.1a15.318,15.318,0,0,1,1.792-.7,6.12,6.12,0,0,1,1.85-.277,6.714,6.714,0,0,1,2.929.571,3.694,3.694,0,0,1,1.69,1.551,4.853,4.853,0,0,1,.527,1.394,8.464,8.464,0,0,1,.141,1.641,7.5,7.5,0,0,1-.086,1.1c-.05.334-.093.59-.137.8h-1.631c.014-.087.033-.193.058-.33a7.06,7.06,0,0,0,.083-1.094,5.112,5.112,0,0,0-.238-1.613,3.5,3.5,0,0,0-.746-1.286,3.546,3.546,0,0,0-1.215-.838,4.153,4.153,0,0,0-1.622-.295,4.2,4.2,0,0,0-1.632.295,3.464,3.464,0,0,0-1.991,2.12,4.92,4.92,0,0,0-.25,1.617,5.7,5.7,0,0,0,.106,1.109q.036.191.057.315H645.7l-.005-7.117H644l.005,7.117h-4.823l-.005-7.117h-1.7l.005,7.117h-3.118l-.005-7.854H632.67v.737h-.552a8.5,8.5,0,0,0-2.426.319,6.053,6.053,0,0,0-1.884.9,4.069,4.069,0,0,0-1.236,1.38,3.6,3.6,0,0,0-.424,1.732,3.676,3.676,0,0,0,.518,1.982,4.12,4.12,0,0,0,1.36,1.35,5.867,5.867,0,0,0,1.908.76,9.906,9.906,0,0,0,2.189.233h17.2l13.621-.005h3.046Zm-10.062,8.289a5.518,5.518,0,0,1-.087,1c-.024.175-.048.315-.072.421h-3.981c-.024-.111-.048-.256-.082-.436a6.1,6.1,0,0,1-.077-.988,3.593,3.593,0,0,1,.14-1.035,2.247,2.247,0,0,1,.412-.789,1.741,1.741,0,0,1,.663-.5,2.26,2.26,0,0,1,.959-.179,2.1,2.1,0,0,1,.915.179,1.876,1.876,0,0,1,.653.509,2.094,2.094,0,0,1,.412.79,3.4,3.4,0,0,1,.145,1.02m-24.278-4.159h1.027v5.583h-1.027a5.458,5.458,0,0,1-1.526-.2,3.964,3.964,0,0,1-1.215-.561,2.533,2.533,0,0,1-.78-.862,2.314,2.314,0,0,1-.285-1.164,2.125,2.125,0,0,1,.3-1.113,2.848,2.848,0,0,1,.837-.876,4.689,4.689,0,0,1,1.236-.586,4.836,4.836,0,0,1,1.428-.218" fill="#074045"/>
      </g>
      <g id="Group_607" data-name="Group 607">
        <rect id="Rectangle_147" data-name="Rectangle 147" width="1.694" height="12.779" transform="translate(669.017 344.229)" fill="#074045"/>
      </g>
      <g id="Group_608" data-name="Group 608">
        <path id="Path_318" data-name="Path 318" d="M465.307,372.825a4.286,4.286,0,0,1-.83-.079,4.85,4.85,0,0,1-.769-.213,3.975,3.975,0,0,1-.673-.319,3.046,3.046,0,0,1-.533-.4c-.06-.06-.068-.116-.023-.168l.7-.808c.052-.06.105-.064.157-.012a4.109,4.109,0,0,0,.41.292,3.341,3.341,0,0,0,.494.259,3.84,3.84,0,0,0,.555.185,2.519,2.519,0,0,0,.617.073,1.628,1.628,0,0,0,1.061-.309.977.977,0,0,0,.376-.791.859.859,0,0,0-.3-.679,2.177,2.177,0,0,0-1.089-.376l-.4-.056a3.165,3.165,0,0,1-1.705-.69,1.893,1.893,0,0,1-.6-1.487,2.4,2.4,0,0,1,.179-.943,2.038,2.038,0,0,1,.517-.73,2.317,2.317,0,0,1,.813-.465,3.291,3.291,0,0,1,1.071-.163,4.408,4.408,0,0,1,1.364.208,3.688,3.688,0,0,1,1.106.555.11.11,0,0,1,.022.157l-.539.831a.105.105,0,0,1-.157.033,4.1,4.1,0,0,0-.909-.448,2.864,2.864,0,0,0-.92-.146,1.265,1.265,0,0,0-.892.286.958.958,0,0,0-.309.735.82.82,0,0,0,.315.656,2.212,2.212,0,0,0,1.088.376l.4.056a3.106,3.106,0,0,1,1.695.691,1.954,1.954,0,0,1,.583,1.52,2.455,2.455,0,0,1-.18.943,1.943,1.943,0,0,1-.544.752,2.644,2.644,0,0,1-.9.494,3.958,3.958,0,0,1-1.246.179" fill="#074045"/>
      </g>
      <g id="Group_609" data-name="Group 609">
        <path id="Path_319" data-name="Path 319" d="M472.915,372.7a.1.1,0,0,1-.112-.112V372.2h-.011a1.348,1.348,0,0,1-.572.454,2.3,2.3,0,0,1-.954.174,2.4,2.4,0,0,1-.7-.1,1.662,1.662,0,0,1-.578-.3,1.452,1.452,0,0,1-.392-.511,1.7,1.7,0,0,1-.146-.734,1.493,1.493,0,0,1,.578-1.3,2.674,2.674,0,0,1,1.588-.416h1.1a.06.06,0,0,0,.068-.067v-.258a.838.838,0,0,0-.259-.684,1.52,1.52,0,0,0-.942-.214,2.224,2.224,0,0,0-.752.107,1.617,1.617,0,0,0-.482.264c-.068.052-.12.045-.158-.023l-.415-.74a.1.1,0,0,1,.022-.146,2.726,2.726,0,0,1,.786-.382,3.8,3.8,0,0,1,1.133-.146,2.648,2.648,0,0,1,1.745.449,1.817,1.817,0,0,1,.511,1.436v3.536a.1.1,0,0,1-.112.112Zm-1.335-.9a1.5,1.5,0,0,0,.892-.225.8.8,0,0,0,.309-.7v-.415a.06.06,0,0,0-.068-.068h-.9a1.736,1.736,0,0,0-.886.174.605.605,0,0,0-.281.556q0,.672.932.673" fill="#074045"/>
      </g>
      <g id="Group_610" data-name="Group 610">
        <path id="Path_320" data-name="Path 320" d="M479.11,372.7a.1.1,0,0,1-.112-.112V372.2h-.012a1.723,1.723,0,0,1-.555.454,1.812,1.812,0,0,1-.847.174,1.908,1.908,0,0,1-.78-.151,1.705,1.705,0,0,1-.584-.421,1.9,1.9,0,0,1-.37-.634,2.394,2.394,0,0,1-.129-.8V367.4a.1.1,0,0,1,.112-.112h1.033a.1.1,0,0,1,.112.112v3.12a1.375,1.375,0,0,0,.247.853.9.9,0,0,0,.763.325.9.9,0,0,0,.746-.325,1.3,1.3,0,0,0,.264-.842V367.4a.1.1,0,0,1,.112-.112h1.033a.1.1,0,0,1,.112.112v5.185a.1.1,0,0,1-.112.112Z" fill="#074045"/>
      </g>
      <g id="Group_611" data-name="Group 611">
        <path id="Path_321" data-name="Path 321" d="M485.451,372.7a.1.1,0,0,1-.112-.112v-.4h-.012a1.423,1.423,0,0,1-.538.461,1.967,1.967,0,0,1-.9.179,2.055,2.055,0,0,1-1.178-.325,1.808,1.808,0,0,1-.7-.977,3.679,3.679,0,0,1-.146-.645,8.644,8.644,0,0,1,0-1.762,3.72,3.72,0,0,1,.146-.645,1.805,1.805,0,0,1,.7-.976,2.056,2.056,0,0,1,1.178-.326,1.954,1.954,0,0,1,.9.18,1.43,1.43,0,0,1,.538.46h.012v-2.626a.1.1,0,0,1,.112-.112h1.032a.1.1,0,0,1,.112.112v7.407a.1.1,0,0,1-.112.112Zm-1.235-1a.955.955,0,0,0,1.01-.7,2.475,2.475,0,0,0,.084-.415,6.11,6.11,0,0,0,0-1.189,2.509,2.509,0,0,0-.084-.416,1.073,1.073,0,0,0-2.009,0,2.729,2.729,0,0,0-.084.416,6.329,6.329,0,0,0,0,1.189,2.691,2.691,0,0,0,.084.415.948.948,0,0,0,1,.7" fill="#074045"/>
      </g>
      <g id="Group_612" data-name="Group 612">
        <path id="Rectangle_148" data-name="Rectangle 148" d="M.112,0H1.145a.112.112,0,0,1,.112.112V5.3a.113.113,0,0,1-.113.113H.112A.112.112,0,0,1,0,5.3V.112A.112.112,0,0,1,.112,0Z" transform="translate(488.458 367.293)" fill="#074045"/>
      </g>
      <g id="Group_613" data-name="Group 613">
        <path id="Path_322" data-name="Path 322" d="M494.451,370.985c-.038-.12-.069-.239-.1-.359a3.591,3.591,0,0,1-.061-.415c-.015-.158-.027-.343-.034-.556s-.011-.469-.011-.769,0-.555.011-.768.019-.4.034-.556a3.591,3.591,0,0,1,.061-.415c.027-.12.058-.239.1-.359a2.49,2.49,0,0,1,1-1.375,3.075,3.075,0,0,1,1.728-.466,3.3,3.3,0,0,1,.976.135,3.082,3.082,0,0,1,.775.354,2.207,2.207,0,0,1,.561.516,2.58,2.58,0,0,1,.347.612.111.111,0,0,1-.044.156l-.943.416a.108.108,0,0,1-.146-.056,2.007,2.007,0,0,0-.617-.7,1.619,1.619,0,0,0-.921-.241,1.5,1.5,0,0,0-.931.264,1.478,1.478,0,0,0-.5.735,2.31,2.31,0,0,0-.062.235,2.992,2.992,0,0,0-.044.337c-.012.135-.019.3-.023.488s-.005.421-.005.69,0,.5.005.691.011.353.023.488a3.024,3.024,0,0,0,.044.337,2.307,2.307,0,0,0,.062.235,1.482,1.482,0,0,0,.5.735,1.5,1.5,0,0,0,.931.264,1.676,1.676,0,0,0,.9-.241,1.287,1.287,0,0,0,.551-.713,2.749,2.749,0,0,0,.089-.421,4.22,4.22,0,0,0,.034-.567.06.06,0,0,0-.068-.067h-1.257a.1.1,0,0,1-.112-.112v-.9a.1.1,0,0,1,.112-.112h2.525a.1.1,0,0,1,.113.112v.662c0,.314-.016.623-.045.926a3.885,3.885,0,0,1-.135.746,2.54,2.54,0,0,1-.993,1.387,2.937,2.937,0,0,1-1.7.487,3.067,3.067,0,0,1-1.728-.465,2.489,2.489,0,0,1-1-1.375" fill="#074045"/>
      </g>
      <g id="Group_614" data-name="Group 614">
        <path id="Path_323" data-name="Path 323" d="M503.866,372.826a2.507,2.507,0,0,1-1.448-.4,2.038,2.038,0,0,1-.807-1.105,3.374,3.374,0,0,1-.141-.578,4.793,4.793,0,0,1-.051-.746,5.532,5.532,0,0,1,.046-.752,3.017,3.017,0,0,1,.134-.583,2.019,2.019,0,0,1,.814-1.1,2.707,2.707,0,0,1,2.816.006,2.045,2.045,0,0,1,.8,1.1c.03.1.058.194.08.291s.04.209.056.337.027.271.034.432.01.35.01.566c0,.075-.04.113-.122.113h-3.334a.06.06,0,0,0-.068.067.911.911,0,0,0,.024.224,1.092,1.092,0,0,0,.056.191,1.153,1.153,0,0,0,1.211.82,1.763,1.763,0,0,0,.763-.146,1.6,1.6,0,0,0,.505-.371c.06-.06.116-.067.168-.022l.663.583a.1.1,0,0,1,.012.158,2.661,2.661,0,0,1-.909.662,3.125,3.125,0,0,1-1.314.258m1.078-3.434a1.418,1.418,0,0,0-.068-.46.971.971,0,0,0-.393-.511,1.173,1.173,0,0,0-.661-.185,1.206,1.206,0,0,0-.675.185.974.974,0,0,0-.392.511,1.474,1.474,0,0,0-.068.46.06.06,0,0,0,.068.067h2.121a.06.06,0,0,0,.068-.067" fill="#074045"/>
      </g>
      <g id="Group_615" data-name="Group 615">
        <path id="Path_324" data-name="Path 324" d="M511.2,372.7a.1.1,0,0,1-.112-.112v-3.12a1.332,1.332,0,0,0-.258-.853.916.916,0,0,0-.763-.326.934.934,0,0,0-.763.326,1.292,1.292,0,0,0-.27.853v3.12a.1.1,0,0,1-.112.112h-1.033a.1.1,0,0,1-.111-.112V367.4a.1.1,0,0,1,.111-.112h1.033a.1.1,0,0,1,.112.112v.393h.011a1.467,1.467,0,0,1,.533-.444,2.165,2.165,0,0,1,1.673-.033,1.75,1.75,0,0,1,.589.421,1.834,1.834,0,0,1,.376.634,2.388,2.388,0,0,1,.129.8v3.412a.1.1,0,0,1-.112.112Z" fill="#074045"/>
      </g>
      <g id="Group_616" data-name="Group 616">
        <path id="Path_325" data-name="Path 325" d="M516.311,372.826a2.5,2.5,0,0,1-1.447-.4,2.039,2.039,0,0,1-.808-1.105,3.368,3.368,0,0,1-.141-.578,4.935,4.935,0,0,1-.05-.746,5.551,5.551,0,0,1,.045-.752,3.094,3.094,0,0,1,.134-.583,2.015,2.015,0,0,1,.814-1.1,2.709,2.709,0,0,1,2.817.006,2.06,2.06,0,0,1,.8,1.1c.03.1.057.194.079.291a3.245,3.245,0,0,1,.056.337c.015.127.026.271.034.432s.011.35.011.566c0,.075-.041.113-.123.113H515.2a.06.06,0,0,0-.068.067.964.964,0,0,0,.023.224,1.187,1.187,0,0,0,.056.191,1.155,1.155,0,0,0,1.212.82,1.763,1.763,0,0,0,.763-.146,1.62,1.62,0,0,0,.505-.371c.06-.06.116-.067.168-.022l.662.583a.1.1,0,0,1,.012.158,2.646,2.646,0,0,1-.91.662,3.114,3.114,0,0,1-1.313.258m1.078-3.434a1.447,1.447,0,0,0-.067-.46.981.981,0,0,0-.393-.511,1.179,1.179,0,0,0-.663-.185,1.2,1.2,0,0,0-.673.185.969.969,0,0,0-.392.511,1.446,1.446,0,0,0-.068.46.06.06,0,0,0,.068.067h2.121a.059.059,0,0,0,.067-.067" fill="#074045"/>
      </g>
      <g id="Group_617" data-name="Group 617">
        <path id="Path_326" data-name="Path 326" d="M520.34,372.7a.1.1,0,0,1-.112-.112V367.4a.1.1,0,0,1,.112-.112h1.033a.1.1,0,0,1,.112.112v.46h.011a1.4,1.4,0,0,1,.538-.505,1.782,1.782,0,0,1,.865-.191,1.674,1.674,0,0,1,.623.118,1.5,1.5,0,0,1,.51.331.11.11,0,0,1,.022.157l-.594.752a.1.1,0,0,1-.157.023,1.818,1.818,0,0,0-.382-.191,1.237,1.237,0,0,0-.415-.068.871.871,0,0,0-.78.36,1.8,1.8,0,0,0-.241,1.009v2.93a.1.1,0,0,1-.112.112Z" fill="#074045"/>
      </g>
      <g id="Group_618" data-name="Group 618">
        <path id="Path_327" data-name="Path 327" d="M528.217,372.7a.1.1,0,0,1-.112-.112V372.2h-.011a1.342,1.342,0,0,1-.572.454,2.3,2.3,0,0,1-.954.174,2.407,2.407,0,0,1-.7-.1,1.657,1.657,0,0,1-.577-.3,1.443,1.443,0,0,1-.393-.511,1.7,1.7,0,0,1-.146-.734,1.5,1.5,0,0,1,.578-1.3,2.674,2.674,0,0,1,1.588-.416h1.1a.059.059,0,0,0,.067-.067v-.258a.838.838,0,0,0-.258-.684,1.524,1.524,0,0,0-.943-.214,2.228,2.228,0,0,0-.752.107,1.63,1.63,0,0,0-.482.264c-.068.052-.12.045-.158-.023l-.415-.74a.1.1,0,0,1,.023-.146,2.707,2.707,0,0,1,.785-.382,3.805,3.805,0,0,1,1.134-.146,2.65,2.65,0,0,1,1.745.449,1.821,1.821,0,0,1,.511,1.436v3.536a.1.1,0,0,1-.113.112Zm-1.335-.9a1.5,1.5,0,0,0,.893-.225.8.8,0,0,0,.308-.7v-.415a.06.06,0,0,0-.067-.068h-.9a1.737,1.737,0,0,0-.887.174.605.605,0,0,0-.281.556q0,.672.932.673" fill="#074045"/>
      </g>
      <g id="Group_619" data-name="Group 619">
        <path id="Path_328" data-name="Path 328" d="M532.549,372.769a1.468,1.468,0,0,1-1.139-.381,1.709,1.709,0,0,1-.342-1.167v-6.038a.1.1,0,0,1,.112-.112h1.033a.1.1,0,0,1,.112.112v5.97a.525.525,0,0,0,.112.387.505.505,0,0,0,.359.107h.247a.1.1,0,0,1,.112.112v.9a.1.1,0,0,1-.112.112Z" fill="#074045"/>
      </g>
      <g id="Group_620" data-name="Group 620">
        <path id="Path_329" data-name="Path 329" d="M539.451,365.183a.14.14,0,0,1,.146-.112h1.032a.14.14,0,0,1,.146.112l2.581,7.407c.023.074,0,.112-.078.112h-1.1a.142.142,0,0,1-.146-.112l-.505-1.482h-2.873l-.505,1.482a.141.141,0,0,1-.146.112h-1.088c-.075,0-.1-.038-.079-.112Zm1.672,4.747-1.01-2.963h-.033l-1.022,2.963Z" fill="#074045"/>
      </g>
      <g id="Group_621" data-name="Group 621">
        <path id="Path_330" data-name="Path 330" d="M547.857,372.7a.1.1,0,0,1-.112-.112V372.2h-.012a1.723,1.723,0,0,1-.555.454,1.815,1.815,0,0,1-.847.174,1.908,1.908,0,0,1-.78-.151,1.7,1.7,0,0,1-.584-.421,1.879,1.879,0,0,1-.37-.634,2.394,2.394,0,0,1-.129-.8V367.4a.1.1,0,0,1,.112-.112h1.032a.1.1,0,0,1,.113.112v3.12a1.381,1.381,0,0,0,.246.853,1.039,1.039,0,0,0,1.51,0,1.3,1.3,0,0,0,.264-.842V367.4a.1.1,0,0,1,.112-.112h1.032a.1.1,0,0,1,.113.112v5.185a.1.1,0,0,1-.113.112Z" fill="#074045"/>
      </g>
      <g id="Group_622" data-name="Group 622">
        <path id="Path_331" data-name="Path 331" d="M552.446,372.769a1.472,1.472,0,0,1-1.162-.393,1.769,1.769,0,0,1-.342-1.189v-2.851a.059.059,0,0,0-.067-.067h-.359a.1.1,0,0,1-.113-.112V367.4a.1.1,0,0,1,.113-.112h.359a.059.059,0,0,0,.067-.067v-1.482a.1.1,0,0,1,.112-.112h1.033a.1.1,0,0,1,.112.112v1.482a.059.059,0,0,0,.067.067h.719a.1.1,0,0,1,.111.112v.752a.1.1,0,0,1-.111.112h-.719a.059.059,0,0,0-.067.067v2.806a.513.513,0,0,0,.123.4.568.568,0,0,0,.382.107h.281a.1.1,0,0,1,.111.112v.9a.1.1,0,0,1-.111.112Z" fill="#074045"/>
      </g>
      <g id="Group_623" data-name="Group 623">
        <path id="Path_332" data-name="Path 332" d="M558.113,372.7a.1.1,0,0,1-.112-.112v-3.12a1.327,1.327,0,0,0-.259-.853.914.914,0,0,0-.763-.326.933.933,0,0,0-.762.326,1.292,1.292,0,0,0-.27.853v3.12a.1.1,0,0,1-.112.112H554.8a.1.1,0,0,1-.112-.112v-7.407a.1.1,0,0,1,.112-.112h1.033a.1.1,0,0,1,.112.112V367.8h.011a1.467,1.467,0,0,1,.533-.444,2.163,2.163,0,0,1,1.672-.033,1.744,1.744,0,0,1,.59.421,1.85,1.85,0,0,1,.376.634,2.388,2.388,0,0,1,.129.8v3.412a.1.1,0,0,1-.113.112Z" fill="#074045"/>
      </g>
      <g id="Group_624" data-name="Group 624">
        <path id="Path_333" data-name="Path 333" d="M563.186,372.825a2.494,2.494,0,0,1-1.419-.393,2.006,2.006,0,0,1-.814-1.1,4.036,4.036,0,0,1-.135-.588,6.216,6.216,0,0,1,0-1.493,4.049,4.049,0,0,1,.135-.589,2.009,2.009,0,0,1,.814-1.1,2.74,2.74,0,0,1,2.828,0,2.012,2.012,0,0,1,.813,1.1,4.049,4.049,0,0,1,.135.589,6.216,6.216,0,0,1,0,1.493,4.036,4.036,0,0,1-.135.588,2.009,2.009,0,0,1-.813,1.1,2.482,2.482,0,0,1-1.409.393m0-1.122a1.047,1.047,0,0,0,.634-.185A1.094,1.094,0,0,0,564.2,371a2.224,2.224,0,0,0,.09-.432c.015-.146.022-.335.022-.567a5.608,5.608,0,0,0-.022-.561,2.487,2.487,0,0,0-.09-.438,1.1,1.1,0,0,0-.376-.522,1.046,1.046,0,0,0-.634-.185,1.014,1.014,0,0,0-1.021.707,2.407,2.407,0,0,0-.09.438,5.6,5.6,0,0,0-.022.561q0,.348.022.567a2.158,2.158,0,0,0,.09.432,1.014,1.014,0,0,0,1.021.707" fill="#074045"/>
      </g>
      <g id="Group_625" data-name="Group 625">
        <path id="Path_334" data-name="Path 334" d="M567.271,372.7a.1.1,0,0,1-.112-.112V367.4a.1.1,0,0,1,.112-.112H568.3a.1.1,0,0,1,.112.112v.46h.011a1.4,1.4,0,0,1,.538-.505,1.782,1.782,0,0,1,.865-.191,1.674,1.674,0,0,1,.623.118,1.5,1.5,0,0,1,.51.331.11.11,0,0,1,.022.157l-.594.752a.1.1,0,0,1-.157.023,1.817,1.817,0,0,0-.382-.191,1.237,1.237,0,0,0-.415-.068.871.871,0,0,0-.78.36,1.8,1.8,0,0,0-.241,1.009v2.93a.1.1,0,0,1-.112.112Z" fill="#074045"/>
      </g>
      <g id="Group_626" data-name="Group 626">
        <rect id="Rectangle_149" data-name="Rectangle 149" width="1.257" height="5.409" rx="0.112" transform="translate(572.13 367.293)" fill="#074045"/>
      </g>
      <g id="Group_627" data-name="Group 627">
        <path id="Path_335" data-name="Path 335" d="M576.832,372.769a1.472,1.472,0,0,1-1.162-.393,1.769,1.769,0,0,1-.341-1.189v-2.851a.06.06,0,0,0-.068-.067H574.9a.1.1,0,0,1-.112-.112V367.4a.1.1,0,0,1,.112-.112h.359a.06.06,0,0,0,.068-.067v-1.482a.1.1,0,0,1,.111-.112h1.033a.1.1,0,0,1,.112.112v1.482a.06.06,0,0,0,.067.067h.719a.1.1,0,0,1,.112.112v.752a.1.1,0,0,1-.112.112h-.719a.059.059,0,0,0-.067.067v2.806a.513.513,0,0,0,.123.4.571.571,0,0,0,.382.107h.281a.1.1,0,0,1,.112.112v.9a.1.1,0,0,1-.112.112Z" fill="#074045"/>
      </g>
      <g id="Group_628" data-name="Group 628">
        <path id="Path_336" data-name="Path 336" d="M579.267,374.722a.1.1,0,0,1-.112-.112v-.9a.1.1,0,0,1,.112-.112h.2a.761.761,0,0,0,.505-.151,1.141,1.141,0,0,0,.3-.489l.157-.46-1.975-5.1c-.022-.075.008-.112.09-.112h1.111a.135.135,0,0,1,.135.112l1.222,3.535h.023l1.167-3.535a.135.135,0,0,1,.135-.112h1.066c.082,0,.112.037.09.112l-2.065,5.634a5.747,5.747,0,0,1-.359.8,2.1,2.1,0,0,1-.393.517,1.282,1.282,0,0,1-.471.28,1.925,1.925,0,0,1-.6.084Z" fill="#074045"/>
      </g>
      <g id="Group_629" data-name="Group 629">
        <path id="Path_337" data-name="Path 337" d="M589.737,372.825a2.5,2.5,0,0,1-1.419-.393,2.005,2.005,0,0,1-.814-1.1,4.02,4.02,0,0,1-.135-.588,6.208,6.208,0,0,1,0-1.493,4.033,4.033,0,0,1,.135-.589,2.009,2.009,0,0,1,.814-1.1,2.74,2.74,0,0,1,2.828,0,2.012,2.012,0,0,1,.813,1.1,3.914,3.914,0,0,1,.134.589,6.216,6.216,0,0,1,0,1.493,3.9,3.9,0,0,1-.134.588,2.008,2.008,0,0,1-.813,1.1,2.482,2.482,0,0,1-1.409.393m0-1.122a1.046,1.046,0,0,0,.634-.185,1.094,1.094,0,0,0,.376-.522,2.228,2.228,0,0,0,.09-.432q.023-.219.022-.567a5.6,5.6,0,0,0-.022-.561,2.492,2.492,0,0,0-.09-.438,1.1,1.1,0,0,0-.376-.522,1.046,1.046,0,0,0-.634-.185,1.014,1.014,0,0,0-1.021.707,2.407,2.407,0,0,0-.09.438c-.015.142-.022.33-.022.561s.007.421.022.567a2.158,2.158,0,0,0,.09.432,1.014,1.014,0,0,0,1.021.707" fill="#074045"/>
      </g>
      <g id="Group_630" data-name="Group 630">
        <path id="Path_338" data-name="Path 338" d="M593.99,372.7a.1.1,0,0,1-.112-.112v-4.254a.06.06,0,0,0-.068-.067h-.359a.1.1,0,0,1-.112-.112V367.4a.1.1,0,0,1,.112-.112h.359a.06.06,0,0,0,.068-.068v-.348a1.821,1.821,0,0,1,.454-1.38,1.894,1.894,0,0,1,1.341-.426h.494a.1.1,0,0,1,.112.112v.9a.1.1,0,0,1-.112.113h-.348a1.741,1.741,0,0,0-.348.028.385.385,0,0,0-.208.106.443.443,0,0,0-.1.2,1.57,1.57,0,0,0-.027.325v.37a.06.06,0,0,0,.067.068h.965a.1.1,0,0,1,.112.112v.752a.1.1,0,0,1-.112.112H595.2a.059.059,0,0,0-.067.067v4.254a.1.1,0,0,1-.113.112Z" fill="#074045"/>
      </g>
      <g id="Group_631" data-name="Group 631">
        <path id="Path_339" data-name="Path 339" d="M600.51,365.183a.1.1,0,0,1,.112-.112H605.4a.1.1,0,0,1,.112.112v.965a.1.1,0,0,1-.112.112h-3.5a.06.06,0,0,0-.068.068v1.941a.06.06,0,0,0,.068.067h2.951a.1.1,0,0,1,.112.113v.964a.1.1,0,0,1-.112.113H601.9a.06.06,0,0,0-.068.067v3a.1.1,0,0,1-.112.112h-1.1a.1.1,0,0,1-.112-.112Z" fill="#074045"/>
      </g>
      <g id="Group_632" data-name="Group 632">
        <path id="Path_340" data-name="Path 340" d="M608.725,372.825a2.5,2.5,0,0,1-1.42-.393,2,2,0,0,1-.813-1.1,4.036,4.036,0,0,1-.135-.588,6.216,6.216,0,0,1,0-1.493,4.049,4.049,0,0,1,.135-.589,2.007,2.007,0,0,1,.813-1.1,2.74,2.74,0,0,1,2.828,0,2.009,2.009,0,0,1,.814,1.1,3.914,3.914,0,0,1,.134.589,6.216,6.216,0,0,1,0,1.493,3.9,3.9,0,0,1-.134.588,2.006,2.006,0,0,1-.814,1.1,2.479,2.479,0,0,1-1.408.393m0-1.122a1.047,1.047,0,0,0,.634-.185,1.1,1.1,0,0,0,.376-.522,2.224,2.224,0,0,0,.09-.432c.014-.146.022-.335.022-.567s-.008-.419-.022-.561a2.487,2.487,0,0,0-.09-.438,1.105,1.105,0,0,0-.376-.522,1.046,1.046,0,0,0-.634-.185A1.014,1.014,0,0,0,607.7,369a2.407,2.407,0,0,0-.09.438,5.56,5.56,0,0,0-.023.561q0,.348.023.567a2.158,2.158,0,0,0,.09.432,1.014,1.014,0,0,0,1.021.707" fill="#074045"/>
      </g>
      <g id="Group_633" data-name="Group 633">
        <path id="Path_341" data-name="Path 341" d="M612.809,372.7a.1.1,0,0,1-.112-.112V367.4a.1.1,0,0,1,.112-.112h1.033a.1.1,0,0,1,.112.112v.46h.011a1.405,1.405,0,0,1,.539-.505,1.778,1.778,0,0,1,.864-.191,1.671,1.671,0,0,1,.623.118,1.494,1.494,0,0,1,.51.331.111.111,0,0,1,.023.157l-.595.752a.1.1,0,0,1-.157.023,1.834,1.834,0,0,0-.381-.191,1.247,1.247,0,0,0-.416-.068.871.871,0,0,0-.78.36,1.8,1.8,0,0,0-.241,1.009v2.93a.1.1,0,0,1-.112.112Z" fill="#074045"/>
      </g>
      <g id="Group_634" data-name="Group 634">
        <path id="Path_342" data-name="Path 342" d="M619.823,372.826a2.5,2.5,0,0,1-1.448-.4,2.038,2.038,0,0,1-.807-1.105,3.374,3.374,0,0,1-.141-.578,4.792,4.792,0,0,1-.051-.746,5.374,5.374,0,0,1,.046-.752,3.018,3.018,0,0,1,.133-.583,2.021,2.021,0,0,1,.815-1.1,2.707,2.707,0,0,1,2.816.006,2.055,2.055,0,0,1,.8,1.1c.03.1.057.194.08.291s.04.209.055.337.026.271.034.432.011.35.011.566c0,.075-.04.113-.123.113h-3.333a.06.06,0,0,0-.068.067.964.964,0,0,0,.023.224,1.3,1.3,0,0,0,.057.191,1.153,1.153,0,0,0,1.211.82,1.763,1.763,0,0,0,.763-.146,1.608,1.608,0,0,0,.505-.371c.06-.06.116-.067.168-.022l.663.583a.1.1,0,0,1,.011.158,2.646,2.646,0,0,1-.91.662,3.112,3.112,0,0,1-1.312.258m1.078-3.434a1.446,1.446,0,0,0-.068-.46.971.971,0,0,0-.393-.511,1.179,1.179,0,0,0-.663-.185,1.2,1.2,0,0,0-.673.185.969.969,0,0,0-.392.511,1.446,1.446,0,0,0-.068.46.06.06,0,0,0,.068.067h2.121a.06.06,0,0,0,.068-.067" fill="#074045"/>
      </g>
      <g id="Group_635" data-name="Group 635">
        <rect id="Rectangle_150" data-name="Rectangle 150" width="1.257" height="5.409" rx="0.112" transform="translate(623.74 367.293)" fill="#074045"/>
      </g>
      <g id="Group_636" data-name="Group 636">
        <path id="Path_343" data-name="Path 343" d="M628.711,374.845a2.921,2.921,0,0,1-1.111-.218,2.157,2.157,0,0,1-.853-.59.1.1,0,0,1,.012-.156l.662-.663a.11.11,0,0,1,.168,0,1.663,1.663,0,0,0,1.178.505,1.176,1.176,0,0,0,.92-.325,1.4,1.4,0,0,0,.292-.965v-.505h-.011a1.313,1.313,0,0,1-.533.46,1.975,1.975,0,0,1-.87.168,1.931,1.931,0,0,1-1.155-.337,1.881,1.881,0,0,1-.685-.976,3.561,3.561,0,0,1-.141-.623,6.171,6.171,0,0,1-.039-.757,6.05,6.05,0,0,1,.039-.752,3.581,3.581,0,0,1,.141-.617,1.889,1.889,0,0,1,.685-.988,2.2,2.2,0,0,1,2.025-.163,1.365,1.365,0,0,1,.533.466h.011v-.4a.1.1,0,0,1,.113-.112h1.032a.1.1,0,0,1,.112.112v4.96a2.255,2.255,0,0,1-2.525,2.48m.18-3.4a.992.992,0,0,0,.623-.179,1.063,1.063,0,0,0,.342-.516,1.968,1.968,0,0,0,.095-.4,3.645,3.645,0,0,0,.028-.488,2.767,2.767,0,0,0-.123-.887,1.062,1.062,0,0,0-.342-.505.992.992,0,0,0-.623-.179.916.916,0,0,0-.954.684,2.736,2.736,0,0,0-.124.887,3.815,3.815,0,0,0,.028.488,2.037,2.037,0,0,0,.1.4.917.917,0,0,0,.954.7" fill="#074045"/>
      </g>
      <g id="Group_637" data-name="Group 637">
        <path id="Path_344" data-name="Path 344" d="M636.522,372.7a.1.1,0,0,1-.112-.112v-3.12a1.332,1.332,0,0,0-.258-.853.916.916,0,0,0-.763-.326.933.933,0,0,0-.763.326,1.292,1.292,0,0,0-.27.853v3.12a.1.1,0,0,1-.112.112h-1.033a.1.1,0,0,1-.112-.112V367.4a.1.1,0,0,1,.112-.112h1.033a.1.1,0,0,1,.112.112v.393h.011a1.467,1.467,0,0,1,.533-.444,2.165,2.165,0,0,1,1.673-.033,1.75,1.75,0,0,1,.589.421,1.834,1.834,0,0,1,.376.634,2.388,2.388,0,0,1,.129.8v3.412a.1.1,0,0,1-.112.112Z" fill="#074045"/>
      </g>
      <g id="Group_638" data-name="Group 638">
        <path id="Path_345" data-name="Path 345" d="M643.94,372.7a.1.1,0,0,1-.112-.112v-6.263a.06.06,0,0,0-.068-.067h-2a.1.1,0,0,1-.113-.112v-.965a.1.1,0,0,1,.113-.112h5.454a.1.1,0,0,1,.112.112v.965a.1.1,0,0,1-.112.112h-2a.059.059,0,0,0-.067.067v6.263a.1.1,0,0,1-.112.112Z" fill="#074045"/>
      </g>
      <g id="Group_639" data-name="Group 639">
        <path id="Path_346" data-name="Path 346" d="M648.731,372.7a.1.1,0,0,1-.112-.112V367.4a.1.1,0,0,1,.112-.112h1.033a.1.1,0,0,1,.112.112v.46h.011a1.4,1.4,0,0,1,.538-.505,1.782,1.782,0,0,1,.865-.191,1.675,1.675,0,0,1,.623.118,1.5,1.5,0,0,1,.51.331.11.11,0,0,1,.022.157l-.594.752a.1.1,0,0,1-.157.023,1.817,1.817,0,0,0-.382-.191,1.237,1.237,0,0,0-.415-.068.871.871,0,0,0-.78.36,1.8,1.8,0,0,0-.241,1.009v2.93a.1.1,0,0,1-.112.112Z" fill="#074045"/>
      </g>
      <g id="Group_640" data-name="Group 640">
        <path id="Path_347" data-name="Path 347" d="M656.609,372.7a.1.1,0,0,1-.112-.112V372.2h-.011a1.342,1.342,0,0,1-.572.454,2.3,2.3,0,0,1-.954.174,2.408,2.408,0,0,1-.7-.1,1.656,1.656,0,0,1-.577-.3,1.442,1.442,0,0,1-.393-.511,1.7,1.7,0,0,1-.146-.734,1.5,1.5,0,0,1,.578-1.3,2.674,2.674,0,0,1,1.588-.416h1.1a.059.059,0,0,0,.067-.067v-.258a.838.838,0,0,0-.258-.684,1.523,1.523,0,0,0-.943-.214,2.228,2.228,0,0,0-.752.107,1.63,1.63,0,0,0-.482.264c-.067.052-.12.045-.158-.023l-.415-.74a.1.1,0,0,1,.023-.146,2.708,2.708,0,0,1,.785-.382,3.8,3.8,0,0,1,1.134-.146,2.65,2.65,0,0,1,1.745.449,1.82,1.82,0,0,1,.511,1.436v3.536a.1.1,0,0,1-.113.112Zm-1.335-.9a1.5,1.5,0,0,0,.893-.225.8.8,0,0,0,.308-.7v-.415a.06.06,0,0,0-.067-.068h-.9a1.737,1.737,0,0,0-.887.174.6.6,0,0,0-.28.556q0,.672.931.673" fill="#074045"/>
      </g>
      <g id="Group_641" data-name="Group 641">
        <path id="Path_348" data-name="Path 348" d="M662.815,372.7a.1.1,0,0,1-.112-.112v-.4h-.011a1.426,1.426,0,0,1-.539.461,1.965,1.965,0,0,1-.9.179,2.057,2.057,0,0,1-1.178-.325,1.808,1.808,0,0,1-.7-.977,3.778,3.778,0,0,1-.146-.645,8.65,8.65,0,0,1,0-1.762,3.821,3.821,0,0,1,.146-.645,1.805,1.805,0,0,1,.7-.976,2.058,2.058,0,0,1,1.178-.326,1.951,1.951,0,0,1,.9.18,1.433,1.433,0,0,1,.539.46h.011v-2.626a.1.1,0,0,1,.112-.112h1.033a.1.1,0,0,1,.112.112v7.407a.1.1,0,0,1-.112.112Zm-1.234-1a.956.956,0,0,0,1.01-.7,2.691,2.691,0,0,0,.084-.415,6.322,6.322,0,0,0,0-1.189,2.729,2.729,0,0,0-.084-.416,1.073,1.073,0,0,0-2.009,0,2.623,2.623,0,0,0-.084.416,6.322,6.322,0,0,0,0,1.189,2.587,2.587,0,0,0,.084.415.948.948,0,0,0,1,.7" fill="#074045"/>
      </g>
      <g id="Group_642" data-name="Group 642">
        <path id="Path_349" data-name="Path 349" d="M667.977,372.826a2.507,2.507,0,0,1-1.448-.4,2.045,2.045,0,0,1-.808-1.105,3.376,3.376,0,0,1-.14-.578,4.8,4.8,0,0,1-.05-.746,5.554,5.554,0,0,1,.044-.752,3.013,3.013,0,0,1,.135-.583,2.01,2.01,0,0,1,.814-1.1,2.707,2.707,0,0,1,2.816.006,2.056,2.056,0,0,1,.8,1.1c.031.1.057.194.079.291s.041.209.057.337.026.271.033.432.011.35.011.566c0,.075-.041.113-.123.113h-3.333a.059.059,0,0,0-.067.067,1.027,1.027,0,0,0,.022.224,1.3,1.3,0,0,0,.056.191,1.155,1.155,0,0,0,1.212.82,1.759,1.759,0,0,0,.763-.146,1.619,1.619,0,0,0,.505-.371c.06-.06.116-.067.168-.022l.662.583a.1.1,0,0,1,.012.158,2.641,2.641,0,0,1-.909.662,3.12,3.12,0,0,1-1.313.258m1.077-3.434a1.447,1.447,0,0,0-.067-.46.976.976,0,0,0-.393-.511,1.178,1.178,0,0,0-.662-.185,1.2,1.2,0,0,0-.673.185.971.971,0,0,0-.393.511,1.445,1.445,0,0,0-.067.46.059.059,0,0,0,.067.067h2.121a.059.059,0,0,0,.067-.067" fill="#074045"/>
      </g>
      <g id="Group_643" data-name="Group 643">
        <path id="Path_350" data-name="Path 350" d="M470.657,345.735A1.169,1.169,0,1,1,469.5,344.7a1.105,1.105,0,0,1,1.161,1.039" fill="#074045"/>
      </g>
      <g id="Group_644" data-name="Group 644">
        <path id="Path_351" data-name="Path 351" d="M528.5,345.735a1.169,1.169,0,1,1-1.162-1.039,1.105,1.105,0,0,1,1.162,1.039" fill="#074045"/>
      </g>
      <g id="Group_645" data-name="Group 645">
        <path id="Path_352" data-name="Path 352" d="M531.555,345.735a1.169,1.169,0,1,1-1.161-1.039,1.105,1.105,0,0,1,1.161,1.039" fill="#074045"/>
      </g>
      <g id="Group_646" data-name="Group 646">
        <path id="Path_353" data-name="Path 353" d="M580.31,345.735a1.169,1.169,0,1,1-1.161-1.039,1.105,1.105,0,0,1,1.161,1.039" fill="#074045"/>
      </g>
      <g id="Group_647" data-name="Group 647">
        <path id="Path_354" data-name="Path 354" d="M583.328,345.735a1.169,1.169,0,1,1-1.162-1.039,1.105,1.105,0,0,1,1.162,1.039" fill="#074045"/>
      </g>
      <g id="Group_648" data-name="Group 648">
        <path id="Path_355" data-name="Path 355" d="M631.579,345.735a1.168,1.168,0,1,1-1.161-1.039,1.105,1.105,0,0,1,1.161,1.039" fill="#074045"/>
      </g>
      <g id="Group_649" data-name="Group 649">
        <path id="Path_356" data-name="Path 356" d="M634.633,345.735a1.169,1.169,0,1,1-1.162-1.039,1.105,1.105,0,0,1,1.162,1.039" fill="#074045"/>
      </g>
      <g id="Group_650" data-name="Group 650">
        <path id="Path_357" data-name="Path 357" d="M504.851,346.29a1.169,1.169,0,1,1-1.162-1.039,1.105,1.105,0,0,1,1.162,1.039" fill="#074045"/>
      </g>
      <g id="Group_651" data-name="Group 651">
        <path id="Path_358" data-name="Path 358" d="M556.012,346.29a1.169,1.169,0,1,1-1.161-1.039,1.105,1.105,0,0,1,1.161,1.039" fill="#074045"/>
      </g>
      <g id="Group_652" data-name="Group 652">
        <path id="Path_359" data-name="Path 359" d="M559.03,346.29a1.169,1.169,0,1,1-1.161-1.039,1.105,1.105,0,0,1,1.161,1.039" fill="#074045"/>
      </g>
      <g id="Group_653" data-name="Group 653">
        <path id="Path_360" data-name="Path 360" d="M475.578,359.013a1.168,1.168,0,1,1-1.161-1.039,1.105,1.105,0,0,1,1.161,1.039" fill="#074045"/>
      </g>
      <g id="Group_654" data-name="Group 654">
        <path id="Path_361" data-name="Path 361" d="M478.608,359.013a1.169,1.169,0,1,1-1.163-1.039,1.106,1.106,0,0,1,1.163,1.039" fill="#074045"/>
      </g>
      <g id="Group_655" data-name="Group 655">
        <path id="Path_362" data-name="Path 362" d="M485.541,359.013a1.168,1.168,0,1,1-1.161-1.039,1.105,1.105,0,0,1,1.161,1.039" fill="#074045"/>
      </g>
      <g id="Group_656" data-name="Group 656">
        <path id="Path_363" data-name="Path 363" d="M547.661,359.013a1.169,1.169,0,1,1-1.161-1.039,1.105,1.105,0,0,1,1.161,1.039" fill="#074045"/>
      </g>
      <g id="Group_657" data-name="Group 657">
        <path id="Path_364" data-name="Path 364" d="M644.379,359.013a1.169,1.169,0,1,1-1.161-1.039,1.105,1.105,0,0,1,1.161,1.039" fill="#074045"/>
      </g>
      <g id="Group_658" data-name="Group 658">
        <path id="Path_365" data-name="Path 365" d="M647.361,359.013a1.169,1.169,0,1,1-1.161-1.039,1.105,1.105,0,0,1,1.161,1.039" fill="#074045"/>
      </g>
      <g id="Group_659" data-name="Group 659">
        <path id="Path_366" data-name="Path 366" d="M467.625,345.735a1.168,1.168,0,1,1-1.161-1.039,1.105,1.105,0,0,1,1.161,1.039" fill="#074045"/>
      </g>
      <g id="Group_660" data-name="Group 660">
        <path id="Path_367" data-name="Path 367" d="M624.982,365.679a.616.616,0,1,1-.616-.616.616.616,0,0,1,.616.616" fill="#074045"/>
      </g>
      <g id="Group_661" data-name="Group 661">
        <path id="Path_368" data-name="Path 368" d="M573.371,365.679a.616.616,0,1,1-.616-.616.616.616,0,0,1,.616.616" fill="#074045"/>
      </g>
      <g id="Group_662" data-name="Group 662">
        <path id="Path_369" data-name="Path 369" d="M489.7,365.679a.616.616,0,1,1-.616-.616.616.616,0,0,1,.616.616" fill="#074045"/>
      </g>
    </g>
  </g>
</svg>
